<svg width="1346" height="401" viewBox="0 0 1346 401" fill="none" xmlns="http://www.w3.org/2000/svg">
<path d="M174.507 331.982L253.452 286.404V155.672L140.235 90.3062L61.3713 135.838L174.507 201.157V331.982Z" fill="url(#paint0_linear_61_123)"/>
<path fill-rule="evenodd" clip-rule="evenodd" d="M175.043 47.6183L216.796 23.4189L179.227 1.72811C176.638 0.233533 173.449 0.233534 170.86 1.72811L4.90066 97.5447C2.31198 99.0393 0.717285 101.801 0.717285 104.791V296.424C0.717285 299.413 2.31198 302.175 4.90066 303.67L170.86 399.486C173.449 400.981 176.638 400.981 179.227 399.486L345.186 303.67C347.775 302.175 349.369 299.413 349.369 296.424V252.97L307.536 277.102L175.043 353.596L42.551 277.102V124.113L175.043 47.6183Z" fill="url(#paint1_linear_61_123)"/>
<path d="M270.996 276.157L349.318 230.938V105.037C349.319 102.048 347.724 99.2855 345.135 97.7909L236.102 34.8403L158.758 79.4945L270.996 144.295V276.157Z" fill="url(#paint2_linear_61_123)"/>
<path d="M1279.9 302.388V293.248L1282.95 267.35H1280.28C1273.04 291.724 1250.57 299.722 1220.49 299.722C1184.3 299.722 1156.5 284.107 1156.5 241.452V104.726C1178.59 102.821 1200.3 102.821 1222.39 104.726V210.983C1222.39 239.928 1233.05 244.118 1248.67 244.118C1267.33 244.118 1274.57 239.547 1279.9 219.743V104.726C1301.99 102.821 1323.7 102.821 1345.79 104.726V294.009C1345.79 359.135 1310.37 383.51 1236.1 383.51C1217.06 383.51 1192.68 381.986 1169.45 378.939C1168.69 364.086 1170.59 341.235 1174.4 326.763C1193.83 330.19 1212.49 331.714 1230.77 331.714C1253.24 331.714 1279.9 326.763 1279.9 302.388Z" fill="#181818"/>
<path d="M1056.32 304.294L1052.89 274.587H1050.22C1044.51 297.819 1021.28 306.96 991.57 306.96C955.77 306.96 928.349 290.964 928.349 249.832C928.349 195.37 957.674 183.944 999.187 183.944C1018.61 183.944 1032.32 185.087 1049.84 187.372V178.612C1049.84 160.712 1038.41 150.429 1000.71 150.429C986.238 150.429 967.576 151.953 944.725 155.761C942.821 140.146 942.821 121.104 944.725 105.489C973.289 100.157 996.521 98.6333 1021.28 98.6333C1083.36 98.6333 1115.73 114.629 1115.73 165.663V304.294C1100.11 306.198 1071.55 306.198 1056.32 304.294ZM1049.84 242.976V224.695C1039.94 222.41 1029.27 221.268 1022.42 221.268C1004.52 221.268 994.236 223.553 994.236 241.072C994.236 257.83 1004.52 259.734 1017.47 259.734C1032.7 259.734 1043.37 255.164 1049.84 242.976Z" fill="#181818"/>
<path d="M825.186 302.388V29.6977C840.801 27.7935 875.458 27.7935 891.073 29.6977V302.388C875.458 304.292 840.801 304.292 825.186 302.388Z" fill="#181818"/>
<path d="M783.935 175.946V221.649C759.56 223.934 701.671 223.934 670.06 222.029V226.219C670.06 249.832 682.247 255.164 715.762 255.164C737.09 255.164 753.467 252.879 774.794 249.07C776.699 264.685 776.699 284.489 774.794 299.723C746.992 304.674 725.284 306.96 698.624 306.96C641.115 306.96 604.173 290.202 604.173 239.549V166.806C604.173 113.867 642.258 98.6333 695.577 98.6333C742.422 98.6333 783.935 117.295 783.935 175.946ZM719.952 185.087V175.185C719.952 153.095 707.764 150.429 694.815 150.429C682.247 150.429 670.06 153.095 670.06 174.804V186.991L692.53 185.087H719.952Z" fill="#181818"/>
<path d="M446.565 302.389V102.442C466.369 101.299 485.793 101.299 505.597 102.442L509.406 135.957H512.072C518.165 109.678 542.54 98.6333 578.34 98.6333C579.863 114.248 579.863 139.765 578.34 154.999C534.542 154.999 522.735 163.759 512.452 191.18V302.389C496.837 304.294 462.18 304.294 446.565 302.389Z" fill="#181818"/>
<defs>
<linearGradient id="paint0_linear_61_123" x1="122.753" y1="105.158" x2="92.4293" y2="316.644" gradientUnits="userSpaceOnUse">
<stop stop-color="#624AFF"/>
<stop offset="0.98" stop-color="#DD09FF"/>
</linearGradient>
<linearGradient id="paint1_linear_61_123" x1="67.8892" y1="374.42" x2="116.232" y2="-22.9876" gradientUnits="userSpaceOnUse">
<stop stop-color="#EF41FF"/>
<stop offset="0.67" stop-color="#1F6BFF"/>
<stop offset="1" stop-color="#7DEFFF"/>
</linearGradient>
<linearGradient id="paint2_linear_61_123" x1="239.602" y1="9.64736" x2="192.778" y2="215.513" gradientUnits="userSpaceOnUse">
<stop stop-color="#7DEFFF"/>
<stop offset="0.985" stop-color="#5707FF"/>
</linearGradient>
</defs>
</svg>
