<svg width="1346" height="401" viewBox="0 0 1346 401" fill="none" xmlns="http://www.w3.org/2000/svg">
<path d="M174.694 331.982L253.638 286.404V155.672L140.421 90.3062L61.5579 135.838L174.694 201.157V331.982Z" fill="url(#paint0_linear_61_136)"/>
<path fill-rule="evenodd" clip-rule="evenodd" d="M175.23 47.6183L216.983 23.4189L179.413 1.72811C176.825 0.233533 173.635 0.233534 171.046 1.72811L5.08718 97.5447C2.4985 99.0393 0.903809 101.801 0.903809 104.791V296.424C0.903809 299.413 2.4985 302.175 5.08718 303.67L171.046 399.486C173.635 400.981 176.825 400.981 179.413 399.486L345.372 303.67C347.961 302.175 349.556 299.413 349.556 296.424V252.97L307.722 277.102L175.23 353.596L42.7375 277.102V124.113L175.23 47.6183Z" fill="url(#paint1_linear_61_136)"/>
<path d="M271.183 276.157L349.505 230.938V105.037C349.505 102.048 347.91 99.2855 345.322 97.7909L236.288 34.8403L158.945 79.4945L271.183 144.295V276.157Z" fill="url(#paint2_linear_61_136)"/>
<path d="M1280.09 302.388V293.248L1283.13 267.35H1280.47C1273.23 291.724 1250.76 299.722 1220.67 299.722C1184.49 299.722 1156.69 284.107 1156.69 241.452V104.726C1178.78 102.821 1200.49 102.821 1222.58 104.726V210.983C1222.58 239.928 1233.24 244.118 1248.86 244.118C1267.52 244.118 1274.75 239.547 1280.09 219.743V104.726C1302.17 102.821 1323.88 102.821 1345.97 104.726V294.009C1345.97 359.135 1310.55 383.51 1236.29 383.51C1217.24 383.51 1192.87 381.986 1169.64 378.939C1168.88 364.086 1170.78 341.235 1174.59 326.763C1194.01 330.19 1212.67 331.714 1230.96 331.714C1253.43 331.714 1280.09 326.763 1280.09 302.388Z" fill="#FBFCFD"/>
<path d="M1056.5 304.294L1053.07 274.587H1050.41C1044.7 297.819 1021.46 306.96 991.757 306.96C955.957 306.96 928.535 290.964 928.535 249.832C928.535 195.37 957.861 183.944 999.374 183.944C1018.8 183.944 1032.51 185.087 1050.03 187.372V178.612C1050.03 160.712 1038.6 150.429 1000.9 150.429C986.425 150.429 967.763 151.953 944.912 155.761C943.008 140.146 943.008 121.104 944.912 105.489C973.476 100.157 996.708 98.6333 1021.46 98.6333C1083.54 98.6333 1115.91 114.629 1115.91 165.663V304.294C1100.3 306.198 1071.74 306.198 1056.5 304.294ZM1050.03 242.976V224.695C1040.12 222.41 1029.46 221.268 1022.61 221.268C1004.71 221.268 994.423 223.553 994.423 241.072C994.423 257.83 1004.71 259.734 1017.65 259.734C1032.89 259.734 1043.55 255.164 1050.03 242.976Z" fill="#FBFCFD"/>
<path d="M825.372 302.388V29.6977C840.987 27.7935 875.645 27.7935 891.26 29.6977V302.388C875.645 304.292 840.987 304.292 825.372 302.388Z" fill="#FBFCFD"/>
<path d="M784.121 175.946V221.649C759.747 223.934 701.857 223.934 670.246 222.029V226.219C670.246 249.832 682.434 255.164 715.949 255.164C737.276 255.164 753.653 252.879 774.981 249.07C776.885 264.685 776.885 284.489 774.981 299.723C747.179 304.674 725.47 306.96 698.81 306.96C641.302 306.96 604.359 290.202 604.359 239.549V166.806C604.359 113.867 642.444 98.6333 695.763 98.6333C742.608 98.6333 784.121 117.295 784.121 175.946ZM720.138 185.087V175.185C720.138 153.095 707.951 150.429 695.002 150.429C682.434 150.429 670.246 153.095 670.246 174.804V186.991L692.717 185.087H720.138Z" fill="#FBFCFD"/>
<path d="M446.751 302.389V102.442C466.556 101.299 485.979 101.299 505.784 102.442L509.592 135.957H512.258C518.352 109.678 542.726 98.6333 578.526 98.6333C580.05 114.248 580.05 139.765 578.526 154.999C534.728 154.999 522.922 163.759 512.639 191.18V302.389C497.024 304.294 462.366 304.294 446.751 302.389Z" fill="#FBFCFD"/>
<defs>
<linearGradient id="paint0_linear_61_136" x1="122.939" y1="105.158" x2="92.6159" y2="316.644" gradientUnits="userSpaceOnUse">
<stop stop-color="#624AFF"/>
<stop offset="0.98" stop-color="#DD09FF"/>
</linearGradient>
<linearGradient id="paint1_linear_61_136" x1="68.0757" y1="374.42" x2="116.418" y2="-22.9876" gradientUnits="userSpaceOnUse">
<stop stop-color="#EF41FF"/>
<stop offset="0.67" stop-color="#1F6BFF"/>
<stop offset="1" stop-color="#7DEFFF"/>
</linearGradient>
<linearGradient id="paint2_linear_61_136" x1="239.788" y1="9.64736" x2="192.964" y2="215.513" gradientUnits="userSpaceOnUse">
<stop stop-color="#7DEFFF"/>
<stop offset="0.985" stop-color="#5707FF"/>
</linearGradient>
</defs>
</svg>
